<svg xmlns="http://www.w3.org/2000/svg" viewBox="0 0 64 80" x="0px" y="0px"><title>Biscuit</title><g><path d="M36,11a1,1,0,1,1-1-1A1.0009,1.0009,0,0,1,36,11ZM60,26A21.8541,21.8541,0,0,1,48.9258,45.1055,24.0051,24.0051,0,0,0,18.8949,15.074,22.0063,22.0063,0,0,1,60,26ZM38,11a3,3,0,1,0-3,3A3.0033,3.0033,0,0,0,38,11Zm12,4a4,4,0,1,0-4,4A4.0042,4.0042,0,0,0,50,15Zm6,10a3,3,0,1,0-3,3A3.0033,3.0033,0,0,0,56,25Zm-3-1a1,1,0,1,0,1,1A1.0009,1.0009,0,0,0,53,24ZM46,13a2,2,0,1,0,2,2A2.0023,2.0023,0,0,0,46,13ZM29,47a3,3,0,1,0,3,3A3.0033,3.0033,0,0,0,29,47ZM27,28a1,1,0,1,0-1-1A1.0009,1.0009,0,0,0,27,28Zm0,10a1,1,0,1,0-1,1A1.0009,1.0009,0,0,0,27,38ZM13,32a2,2,0,1,0,2,2A2.0023,2.0023,0,0,0,13,32Zm35,6A22.0035,22.0035,0,0,1,17.3672,58.2373a.9992.9992,0,0,1-.5508-1.25A2.9731,2.9731,0,0,0,17,56a3.0033,3.0033,0,0,0-3-3,.2813.2813,0,0,1-.1074.0137,1,1,0,0,1-1.0059-1.2544A2.9169,2.9169,0,0,0,11.07,48.208a1,1,0,0,1-.5312-1.3911A3.95,3.95,0,0,0,11,45a4.0042,4.0042,0,0,0-4-4,3.9631,3.9631,0,0,0-1.4854.2939,1.001,1.001,0,0,1-1.3671-.8173A22.3343,22.3343,0,0,1,4,38a22,22,0,0,1,44,0ZM17,34a4,4,0,1,0-4,4A4.0042,4.0042,0,0,0,17,34Zm7-7a3,3,0,1,0,3-3A3.0033,3.0033,0,0,0,24,27Zm2,14a3,3,0,1,0-3-3A3.0033,3.0033,0,0,0,26,41Zm8,9a5,5,0,1,0-5,5A5.0059,5.0059,0,0,0,34,50Zm8-11a4,4,0,1,0-4,4A4.0042,4.0042,0,0,0,42,39Zm-4-2a2,2,0,1,0,2,2A2.0023,2.0023,0,0,0,38,37Z"/></g></svg>